AmstelvarAlpha-GRAD-min.ufo
<glyph name="quotedbl" format="1">
  <advance width="731"/>
  <unicode hex="0022"/>
  <outline>
    <contour>
      <point x="239" y="964" type="line"/>
      <point x="206" y="1436" type="line"/>
      <point x="205" y="1491"/>
      <point x="219" y="1558"/>
      <point x="246" y="1558" type="qcurve" smooth="yes"/>
      <point x="274" y="1558"/>
      <point x="288" y="1491"/>
      <point x="287" y="1436" type="qcurve"/>
      <point x="253" y="964" type="line"/>
    </contour>
    <contour>
      <point x="478" y="964" type="line"/>
      <point x="444" y="1436" type="line"/>
      <point x="443" y="1491"/>
      <point x="458" y="1558"/>
      <point x="485" y="1558" type="qcurve" smooth="yes"/>
      <point x="512" y="1558"/>
      <point x="527" y="1491"/>
      <point x="525" y="1436" type="qcurve" smooth="yes"/>
      <point x="491" y="964" type="line"/>
    </contour>
  </outline>
</glyph>
<glyph name="dollar" format="1">
  <advance width="1107"/>
  <unicode hex="0024"/>
  <outline>
    <contour>
      <point x="72" y="307" type="qcurve"/>
      <point x="119" y="337" type="line"/>
      <point x="193" y="211"/>
      <point x="432" y="69"/>
      <point x="577" y="69" type="qcurve" smooth="yes"/>
      <point x="765" y="69"/>
      <point x="998" y="234"/>
      <point x="998" y="380" type="qcurve" smooth="yes"/>
      <point x="998" y="520"/>
      <point x="781" y="692"/>
      <point x="552" y="776" type="qcurve" smooth="yes"/>
      <point x="308" y="866"/>
      <point x="135" y="1027"/>
      <point x="135" y="1147" type="qcurve" smooth="yes"/>
      <point x="135" y="1306"/>
      <point x="362" y="1501"/>
      <point x="568" y="1501" type="qcurve" smooth="yes"/>
      <point x="702" y="1501"/>
      <point x="903" y="1417"/>
      <point x="970" y="1342" type="qcurve"/>
      <point x="939" y="1298" type="line"/>
      <point x="879" y="1367"/>
      <point x="694" y="1449"/>
      <point x="569" y="1449" type="qcurve" smooth="yes"/>
      <point x="392" y="1449"/>
      <point x="177" y="1298"/>
      <point x="177" y="1161" type="qcurve" smooth="yes"/>
      <point x="177" y="1049"/>
      <point x="353" y="910"/>
      <point x="584" y="822" type="qcurve" smooth="yes"/>
      <point x="837" y="727"/>
      <point x="1043" y="541"/>
      <point x="1043" y="392" type="qcurve" smooth="yes"/>
      <point x="1043" y="221"/>
      <point x="790" y="20"/>
      <point x="578" y="20" type="qcurve" smooth="yes"/>
      <point x="417" y="20"/>
      <point x="158" y="159"/>
    </contour>
    <contour>
      <point x="541" y="-163" type="line"/>
      <point x="541" y="41" type="line"/>
      <point x="548" y="41" type="line"/>
      <point x="548" y="820" type="line"/>
      <point x="598" y="778" type="line"/>
      <point x="598" y="41" type="line"/>
      <point x="606" y="41" type="line"/>
      <point x="606" y="-140" type="line"/>
    </contour>
    <contour>
      <point x="540" y="1582" type="line"/>
      <point x="606" y="1598" type="line"/>
      <point x="606" y="1418" type="line"/>
      <point x="598" y="1418" type="line"/>
      <point x="598" y="778" type="line"/>
      <point x="548" y="820" type="line"/>
      <point x="548" y="1418" type="line"/>
      <point x="540" y="1418" type="line"/>
    </contour>
  </outline>
</glyph>
<glyph name="plus" format="1">
  <advance width="1024"/>
  <unicode hex="002B"/>
  <outline>
    <contour>
      <point x="80" y="600" type="line"/>
      <point x="80" y="664" type="line"/>
      <point x="944" y="664" type="line"/>
      <point x="944" y="600" type="line"/>
    </contour>
    <contour>
      <point x="497" y="200" type="line"/>
      <point x="497" y="1064" type="line"/>
      <point x="527" y="1064" type="line"/>
      <point x="527" y="200" type="line"/>
    </contour>
  </outline>
</glyph>
<glyph name="comma" format="1">
  <advance width="584"/>
  <unicode hex="002C"/>
  <outline>
    <contour>
      <point x="193" y="-200" type="line"/>
      <point x="241" y="-161"/>
      <point x="327" y="-58"/>
      <point x="345" y="2" type="qcurve"/>
      <point x="274" y="-16"/>
      <point x="207" y="36"/>
      <point x="207" y="73" type="qcurve" smooth="yes"/>
      <point x="207" y="110"/>
      <point x="254" y="158"/>
      <point x="292" y="158" type="qcurve" smooth="yes"/>
      <point x="327" y="158"/>
      <point x="377" y="110"/>
      <point x="377" y="64" type="qcurve" smooth="yes"/>
      <point x="377" y="-16"/>
      <point x="272" y="-163"/>
      <point x="201" y="-209" type="qcurve"/>
    </contour>
  </outline>
</glyph>
<glyph name="period" format="1">
  <advance width="584"/>
  <unicode hex="002E"/>
  <outline>
    <contour>
      <point x="207" y="69" type="qcurve" smooth="yes"/>
      <point x="207" y="104"/>
      <point x="254" y="154"/>
      <point x="292" y="154" type="qcurve" smooth="yes"/>
      <point x="330" y="154"/>
      <point x="377" y="104"/>
      <point x="377" y="69" type="qcurve" smooth="yes"/>
      <point x="377" y="34"/>
      <point x="330" y="-16"/>
      <point x="292" y="-16" type="qcurve" smooth="yes"/>
      <point x="254" y="-16"/>
      <point x="207" y="34"/>
    </contour>
  </outline>
</glyph>
<glyph name="one" format="1">
  <advance width="840"/>
  <unicode hex="0031"/>
  <outline>
    <contour>
      <point x="84" y="0" type="line"/>
      <point x="84" y="40" type="line"/>
      <point x="405" y="59" type="line"/>
      <point x="405" y="754" type="line"/>
      <point x="405" y="1384" type="line"/>
      <point x="82" y="1389" type="line"/>
      <point x="82" y="1428" type="line"/>
      <point x="447" y="1519" type="line"/>
      <point x="456" y="1504" type="line"/>
      <point x="455" y="754" type="line"/>
      <point x="455" y="59" type="line"/>
      <point x="776" y="40" type="line"/>
      <point x="776" y="0" type="line"/>
    </contour>
  </outline>
</glyph>
<glyph name="two" format="1">
  <advance width="966"/>
  <unicode hex="0032"/>
  <outline>
    <contour>
      <point x="12" y="0" type="line"/>
      <point x="12" y="72" type="line"/>
      <point x="27" y="220"/>
      <point x="209" y="491"/>
      <point x="392" y="623" type="qcurve" smooth="yes"/>
      <point x="554" y="741"/>
      <point x="841" y="978"/>
      <point x="841" y="1148" type="qcurve" smooth="yes"/>
      <point x="841" y="1307"/>
      <point x="616" y="1464"/>
      <point x="465" y="1464" type="qcurve" smooth="yes"/>
      <point x="319" y="1464"/>
      <point x="117" y="1353"/>
      <point x="43" y="1264" type="qcurve"/>
      <point x="43" y="1323" type="line"/>
      <point x="102" y="1399"/>
      <point x="309" y="1520"/>
      <point x="477" y="1520" type="qcurve" smooth="yes"/>
      <point x="654" y="1520"/>
      <point x="896" y="1319"/>
      <point x="896" y="1148" type="qcurve" smooth="yes"/>
      <point x="896" y="947"/>
      <point x="550" y="665"/>
      <point x="421" y="579" type="qcurve" smooth="yes"/>
      <point x="269" y="477"/>
      <point x="81" y="223"/>
      <point x="65" y="55" type="qcurve"/>
      <point x="70" y="49" type="line"/>
      <point x="956" y="49" type="line"/>
      <point x="956" y="0" type="line"/>
    </contour>
  </outline>
</glyph>
<glyph name="three" format="1">
  <advance width="953"/>
  <unicode hex="0033"/>
  <outline>
    <contour>
      <point x="-19" y="189" type="qcurve"/>
      <point x="-19" y="245" type="line"/>
      <point x="50" y="151"/>
      <point x="301" y="32"/>
      <point x="454" y="32" type="qcurve" smooth="yes"/>
      <point x="625" y="32"/>
      <point x="862" y="227"/>
      <point x="862" y="391" type="qcurve" smooth="yes"/>
      <point x="862" y="558"/>
      <point x="535" y="754"/>
      <point x="288" y="754" type="qcurve" smooth="yes"/>
      <point x="255" y="754" type="line"/>
      <point x="238" y="796" type="line"/>
      <point x="311" y="798" type="line" smooth="yes"/>
      <point x="535" y="802"/>
      <point x="830" y="1011"/>
      <point x="830" y="1178" type="qcurve" smooth="yes"/>
      <point x="830" y="1325"/>
      <point x="620" y="1467"/>
      <point x="466" y="1467" type="qcurve" smooth="yes"/>
      <point x="351" y="1467"/>
      <point x="141" y="1370"/>
      <point x="50" y="1282" type="qcurve"/>
      <point x="50" y="1333" type="line"/>
      <point x="125" y="1415"/>
      <point x="351" y="1520"/>
      <point x="483" y="1520" type="qcurve" smooth="yes"/>
      <point x="646" y="1520"/>
      <point x="882" y="1345"/>
      <point x="882" y="1185" type="qcurve" smooth="yes"/>
      <point x="882" y="1028"/>
      <point x="669" y="829"/>
      <point x="480" y="788" type="qcurve"/>
      <point x="480" y="782" type="line"/>
      <point x="673" y="758"/>
      <point x="916" y="546"/>
      <point x="916" y="385" type="qcurve" smooth="yes"/>
      <point x="916" y="202"/>
      <point x="659" y="-26"/>
      <point x="474" y="-26" type="qcurve" smooth="yes"/>
      <point x="312" y="-26"/>
      <point x="52" y="95"/>
    </contour>
  </outline>
</glyph>
<glyph name="four" format="1">
  <advance width="1170"/>
  <unicode hex="0034"/>
  <outline>
    <contour>
      <point x="15" y="497" type="line"/>
      <point x="13" y="508" type="line"/>
      <point x="726" y="1492" type="line"/>
      <point x="767" y="1492" type="line"/>
      <point x="788" y="1470" type="line"/>
      <point x="786" y="512" type="line"/>
      <point x="1170" y="512" type="line"/>
      <point x="1170" y="494" type="line"/>
      <point x="786" y="496" type="line"/>
      <point x="786" y="57" type="line"/>
      <point x="1077" y="38" type="line"/>
      <point x="1077" y="0" type="line"/>
      <point x="435" y="0" type="line"/>
      <point x="435" y="38" type="line"/>
      <point x="736" y="57" type="line"/>
      <point x="736" y="498" type="line"/>
    </contour>
    <contour>
      <point x="80" y="512" type="line"/>
      <point x="735" y="512" type="line"/>
      <point x="735" y="1433" type="line"/>
      <point x="77" y="516" type="line"/>
    </contour>
  </outline>
</glyph>
<glyph name="five" format="1">
  <advance width="974"/>
  <unicode hex="0035"/>
  <outline>
    <contour>
      <point x="-15" y="139" type="qcurve"/>
      <point x="-15" y="190" type="line"/>
      <point x="72" y="111"/>
      <point x="302" y="30"/>
      <point x="453" y="30" type="qcurve" smooth="yes"/>
      <point x="623" y="30"/>
      <point x="885" y="258"/>
      <point x="885" y="454" type="qcurve" smooth="yes"/>
      <point x="885" y="659"/>
      <point x="571" y="843"/>
      <point x="343" y="843" type="qcurve" smooth="yes"/>
      <point x="143" y="843" type="line"/>
      <point x="169" y="893" type="line"/>
      <point x="377" y="921" type="line"/>
      <point x="633" y="923"/>
      <point x="938" y="688"/>
      <point x="938" y="468" type="qcurve" smooth="yes"/>
      <point x="938" y="252"/>
      <point x="665" y="-26"/>
      <point x="457" y="-26" type="qcurve" smooth="yes"/>
      <point x="295" y="-26"/>
      <point x="60" y="63"/>
    </contour>
    <contour>
      <point x="143" y="843" type="qcurve"/>
      <point x="213" y="1478" type="line"/>
      <point x="234" y="1500" type="line"/>
      <point x="858" y="1500" type="line"/>
      <point x="856" y="1450" type="line"/>
      <point x="263" y="1450" type="line"/>
      <point x="253" y="1439" type="line"/>
      <point x="194" y="917"/>
      <point x="173" y="848"/>
    </contour>
  </outline>
</glyph>
<glyph name="seven" format="1">
  <advance width="965"/>
  <unicode hex="0037"/>
  <outline>
    <contour>
      <point x="37" y="1098" type="line"/>
      <point x="37" y="1500" type="line"/>
      <point x="965" y="1500" type="line"/>
      <point x="965" y="1421" type="line"/>
      <point x="625" y="645" type="line"/>
      <point x="330" y="-35" type="line"/>
      <point x="290" y="-35" type="line"/>
      <point x="290" y="0" type="line"/>
      <point x="579" y="663" type="line"/>
      <point x="892" y="1398" type="line"/>
      <point x="889" y="1452" type="line"/>
      <point x="113" y="1452" type="line"/>
      <point x="85" y="1098" type="line"/>
    </contour>
  </outline>
</glyph>
<glyph name="eight" format="1">
  <advance width="1056"/>
  <unicode hex="0038"/>
  <outline>
    <contour>
      <point x="72" y="358" type="qcurve" smooth="yes"/>
      <point x="72" y="526"/>
      <point x="297" y="756"/>
      <point x="477" y="828" type="qcurve"/>
      <point x="512" y="806" type="line"/>
      <point x="325" y="725"/>
      <point x="132" y="509"/>
      <point x="132" y="362" type="qcurve" smooth="yes"/>
      <point x="132" y="216"/>
      <point x="362" y="17"/>
      <point x="532" y="17" type="qcurve" smooth="yes"/>
      <point x="688" y="17"/>
      <point x="950" y="204"/>
      <point x="950" y="362" type="qcurve" smooth="yes"/>
      <point x="950" y="516"/>
      <point x="713" y="700"/>
      <point x="528" y="782" type="qcurve" smooth="yes"/>
      <point x="332" y="869"/>
      <point x="142" y="1041"/>
      <point x="142" y="1183" type="qcurve" smooth="yes"/>
      <point x="142" y="1337"/>
      <point x="371" y="1520"/>
      <point x="522" y="1520" type="qcurve" smooth="yes"/>
      <point x="690" y="1520"/>
      <point x="891" y="1350"/>
      <point x="891" y="1217" type="qcurve" smooth="yes"/>
      <point x="891" y="1086"/>
      <point x="728" y="886"/>
      <point x="562" y="805" type="qcurve"/>
      <point x="522" y="828" type="line"/>
      <point x="690" y="911"/>
      <point x="827" y="1091"/>
      <point x="827" y="1204" type="qcurve" smooth="yes"/>
      <point x="827" y="1326"/>
      <point x="665" y="1477"/>
      <point x="512" y="1477" type="qcurve" smooth="yes"/>
      <point x="383" y="1477"/>
      <point x="182" y="1326"/>
      <point x="182" y="1198" type="qcurve" smooth="yes"/>
      <point x="182" y="1066"/>
      <point x="365" y="913"/>
      <point x="558" y="827" type="qcurve" smooth="yes"/>
      <point x="751" y="742"/>
      <point x="994" y="539"/>
      <point x="994" y="376" type="qcurve" smooth="yes"/>
      <point x="994" y="203"/>
      <point x="715" y="-26"/>
      <point x="532" y="-26" type="qcurve" smooth="yes"/>
      <point x="332" y="-26"/>
      <point x="72" y="199"/>
    </contour>
  </outline>
</glyph>
<glyph name="nine" format="1">
  <advance width="1176"/>
  <unicode hex="0039"/>
  <outline>
    <contour>
      <point x="60" y="1036" type="qcurve" smooth="yes"/>
      <point x="60" y="1262"/>
      <point x="332" y="1520"/>
      <point x="545" y="1520" type="qcurve" smooth="yes"/>
      <point x="786" y="1520"/>
      <point x="1102" y="1154"/>
      <point x="1102" y="850" type="qcurve" smooth="yes"/>
      <point x="1102" y="513"/>
      <point x="681" y="26"/>
      <point x="287" y="-69" type="qcurve"/>
      <point x="287" y="-16" type="line"/>
      <point x="629" y="65"/>
      <point x="1051" y="514"/>
      <point x="1050" y="855" type="qcurve" smooth="yes"/>
      <point x="1050" y="1145"/>
      <point x="751" y="1476"/>
      <point x="544" y="1476" type="qcurve" smooth="yes"/>
      <point x="362" y="1476"/>
      <point x="112" y="1253"/>
      <point x="112" y="1040" type="qcurve" smooth="yes"/>
      <point x="112" y="835"/>
      <point x="356" y="635"/>
      <point x="517" y="635" type="qcurve" smooth="yes"/>
      <point x="602" y="635"/>
      <point x="723" y="683"/>
      <point x="761" y="708" type="qcurve"/>
      <point x="773" y="678" type="line"/>
      <point x="735" y="642"/>
      <point x="608" y="580"/>
      <point x="510" y="580" type="qcurve" smooth="yes"/>
      <point x="323" y="580"/>
      <point x="60" y="821"/>
    </contour>
  </outline>
</glyph>
<glyph name="greater" format="1">
  <advance width="701"/>
  <unicode hex="003E"/>
  <outline>
    <contour>
      <point x="606" y="634" type="qcurve"/>
      <point x="606" y="634"/>
      <point x="196" y="246"/>
      <point x="135" y="189" type="qcurve" smooth="yes"/>
      <point x="116" y="172"/>
      <point x="99" y="187"/>
      <point x="118" y="206" type="qcurve" smooth="yes"/>
      <point x="239" y="322"/>
      <point x="568" y="634"/>
      <point x="568" y="634" type="qcurve"/>
      <point x="568" y="634"/>
      <point x="238" y="948"/>
      <point x="118" y="1064" type="qcurve" smooth="yes"/>
      <point x="99" y="1082"/>
      <point x="117" y="1097"/>
      <point x="136" y="1080" type="qcurve" smooth="yes"/>
      <point x="196" y="1023"/>
      <point x="606" y="634"/>
    </contour>
  </outline>
</glyph>
<glyph name="question" format="1">
  <advance width="898"/>
  <unicode hex="003F"/>
  <outline>
    <contour>
      <point x="235" y="69" type="qcurve" smooth="yes"/>
      <point x="235" y="104"/>
      <point x="283" y="154"/>
      <point x="321" y="154" type="qcurve" smooth="yes"/>
      <point x="358" y="154"/>
      <point x="406" y="104"/>
      <point x="406" y="69" type="qcurve" smooth="yes"/>
      <point x="406" y="34"/>
      <point x="358" y="-16"/>
      <point x="321" y="-16" type="qcurve" smooth="yes"/>
      <point x="283" y="-16"/>
      <point x="235" y="34"/>
    </contour>
    <contour>
      <point x="25" y="1333" type="line"/>
      <point x="85" y="1423"/>
      <point x="295" y="1540"/>
      <point x="431" y="1540" type="qcurve" smooth="yes"/>
      <point x="630" y="1540"/>
      <point x="878" y="1302"/>
      <point x="878" y="1121" type="qcurve" smooth="yes"/>
      <point x="878" y="938"/>
      <point x="652" y="735"/>
      <point x="483" y="735" type="qcurve" smooth="yes"/>
      <point x="442" y="735"/>
      <point x="358" y="750"/>
      <point x="325" y="763" type="qcurve"/>
      <point x="322" y="379" type="line"/>
      <point x="305" y="379" type="line"/>
      <point x="305" y="661" type="line"/>
      <point x="297" y="782" type="line"/>
      <point x="311" y="804" type="line"/>
      <point x="342" y="796"/>
      <point x="431" y="786"/>
      <point x="470" y="786" type="qcurve" smooth="yes"/>
      <point x="612" y="786"/>
      <point x="824" y="951"/>
      <point x="824" y="1121" type="qcurve" smooth="yes"/>
      <point x="824" y="1292"/>
      <point x="591" y="1489"/>
      <point x="425" y="1489" type="qcurve" smooth="yes"/>
      <point x="303" y="1489"/>
      <point x="112" y="1391"/>
      <point x="48" y="1311" type="qcurve"/>
    </contour>
  </outline>
</glyph>
<glyph name="B" format="1">
  <advance width="1269"/>
  <unicode hex="0042"/>
  <outline>
    <contour>
      <point x="82" y="0" type="line"/>
      <point x="82" y="40" type="line"/>
      <point x="355" y="57" type="line"/>
      <point x="355" y="792" type="line"/>
      <point x="355" y="1437" type="line"/>
      <point x="82" y="1454" type="line"/>
      <point x="82" y="1500" type="line"/>
      <point x="655" y="1500" type="line" smooth="yes"/>
      <point x="851" y="1500"/>
      <point x="1041" y="1323"/>
      <point x="1041" y="1173" type="qcurve" smooth="yes"/>
      <point x="1041" y="1028"/>
      <point x="880" y="846"/>
      <point x="786" y="831" type="qcurve"/>
      <point x="786" y="826" type="line"/>
      <point x="941" y="817"/>
      <point x="1163" y="621"/>
      <point x="1163" y="443" type="qcurve" smooth="yes"/>
      <point x="1163" y="229"/>
      <point x="892" y="0"/>
      <point x="680" y="0" type="qcurve" smooth="yes"/>
    </contour>
    <contour>
      <point x="405" y="65" type="line"/>
      <point x="429" y="48" type="line"/>
      <point x="671" y="42" type="line" smooth="yes"/>
      <point x="866" y="38"/>
      <point x="1110" y="238"/>
      <point x="1110" y="440" type="qcurve" smooth="yes"/>
      <point x="1110" y="604"/>
      <point x="898" y="793"/>
      <point x="719" y="793" type="qcurve" smooth="yes"/>
      <point x="411" y="793" type="line"/>
      <point x="405" y="782" type="line"/>
    </contour>
    <contour>
      <point x="405" y="847" type="line"/>
      <point x="415" y="838" type="line"/>
      <point x="699" y="838" type="line" smooth="yes"/>
      <point x="816" y="838"/>
      <point x="990" y="1016"/>
      <point x="990" y="1163" type="qcurve" smooth="yes"/>
      <point x="990" y="1303"/>
      <point x="820" y="1454"/>
      <point x="649" y="1454" type="qcurve" smooth="yes"/>
      <point x="438" y="1454" type="line"/>
      <point x="406" y="1432" type="line"/>
    </contour>
  </outline>
</glyph>
<glyph name="D" format="1">
  <advance width="1525"/>
  <unicode hex="0044"/>
  <outline>
    <contour>
      <point x="82" y="0" type="line"/>
      <point x="82" y="40" type="line"/>
      <point x="355" y="59" type="line"/>
      <point x="355" y="756" type="line"/>
      <point x="355" y="1436" type="line"/>
      <point x="82" y="1454" type="line"/>
      <point x="82" y="1500" type="line"/>
      <point x="679" y="1500" type="line" smooth="yes"/>
      <point x="1007" y="1500"/>
      <point x="1445" y="1119"/>
      <point x="1445" y="772" type="qcurve" smooth="yes"/>
      <point x="1445" y="419"/>
      <point x="1024" y="0"/>
      <point x="692" y="0" type="qcurve" smooth="yes"/>
    </contour>
    <contour>
      <point x="405" y="64" type="line"/>
      <point x="445" y="59"/>
      <point x="672" y="41"/>
      <point x="707" y="41" type="qcurve" smooth="yes"/>
      <point x="1023" y="41"/>
      <point x="1389" y="435"/>
      <point x="1391" y="767" type="qcurve" smooth="yes"/>
      <point x="1393" y="1082"/>
      <point x="992" y="1454"/>
      <point x="689" y="1454" type="qcurve" smooth="yes"/>
      <point x="611" y="1454"/>
      <point x="426" y="1435"/>
      <point x="405" y="1431" type="qcurve"/>
      <point x="405" y="756" type="line"/>
    </contour>
  </outline>
</glyph>
<glyph name="J" format="1">
  <advance width="660"/>
  <unicode hex="004A"/>
  <outline>
    <contour>
      <point x="16" y="2" type="qcurve"/>
      <point x="16" y="42" type="line"/>
      <point x="95" y="42" type="line" smooth="yes"/>
      <point x="227" y="42"/>
      <point x="353" y="171"/>
      <point x="352" y="310" type="qcurve" smooth="yes"/>
      <point x="352" y="754" type="line"/>
      <point x="351" y="1437" type="line"/>
      <point x="52" y="1454" type="line"/>
      <point x="52" y="1500" type="line"/>
      <point x="660" y="1500" type="line"/>
      <point x="660" y="1454" type="line"/>
      <point x="402" y="1437" type="line"/>
      <point x="402" y="754" type="line"/>
      <point x="403" y="337" type="line" smooth="yes"/>
      <point x="403" y="163"/>
      <point x="262" y="-16"/>
      <point x="136" y="-16" type="qcurve" smooth="yes"/>
      <point x="94" y="-16"/>
      <point x="41" y="-6"/>
    </contour>
  </outline>
</glyph>
<glyph name="L" format="1">
  <advance width="1264"/>
  <unicode hex="004C"/>
  <outline>
    <contour>
      <point x="82" y="0" type="line"/>
      <point x="82" y="40" type="line"/>
      <point x="355" y="59" type="line"/>
      <point x="355" y="754" type="line"/>
      <point x="355" y="1437" type="line"/>
      <point x="82" y="1454" type="line"/>
      <point x="82" y="1500" type="line"/>
      <point x="712" y="1500" type="line"/>
      <point x="712" y="1454" type="line"/>
      <point x="405" y="1437" type="line"/>
      <point x="405" y="754" type="line"/>
      <point x="405" y="62" type="line"/>
      <point x="457" y="41" type="line"/>
      <point x="1125" y="41" type="line"/>
      <point x="1217" y="418" type="line"/>
      <point x="1264" y="418" type="line"/>
      <point x="1213" y="0" type="line"/>
    </contour>
  </outline>
</glyph>
<glyph name="M" format="1">
  <advance width="2116"/>
  <unicode hex="004D"/>
  <outline>
    <contour>
      <point x="82" y="0" type="line"/>
      <point x="82" y="40" type="line"/>
      <point x="316" y="50" type="line"/>
      <point x="318" y="754" type="line"/>
      <point x="317" y="1443" type="line"/>
      <point x="82" y="1454" type="line"/>
      <point x="82" y="1500" type="line"/>
      <point x="411" y="1500" type="line"/>
      <point x="719" y="763" type="line"/>
      <point x="1025" y="47" type="line"/>
      <point x="1346" y="776" type="line"/>
      <point x="1663" y="1500" type="line"/>
      <point x="2034" y="1500" type="line"/>
      <point x="2034" y="1454" type="line"/>
      <point x="1761" y="1438" type="line"/>
      <point x="1761" y="754" type="line"/>
      <point x="1761" y="58" type="line"/>
      <point x="2034" y="40" type="line"/>
      <point x="2034" y="0" type="line"/>
      <point x="1408" y="0" type="line"/>
      <point x="1408" y="40" type="line"/>
      <point x="1711" y="58" type="line"/>
      <point x="1711" y="754" type="line"/>
      <point x="1711" y="1470" type="line"/>
      <point x="1394" y="754" type="line"/>
      <point x="1058" y="-8" type="line"/>
      <point x="993" y="-8" type="line"/>
      <point x="673" y="742" type="line"/>
      <point x="366" y="1481" type="line"/>
      <point x="367" y="754" type="line"/>
      <point x="368" y="50" type="line"/>
      <point x="611" y="40" type="line"/>
      <point x="611" y="0" type="line"/>
    </contour>
  </outline>
</glyph>
<glyph name="S" format="1">
  <advance width="1112"/>
  <unicode hex="0053"/>
  <outline>
    <contour>
      <point x="59" y="0" type="line"/>
      <point x="59" y="471" type="line"/>
      <point x="105" y="471" type="line"/>
      <point x="137" y="146" type="line"/>
      <point x="114" y="0" type="line"/>
    </contour>
    <contour>
      <point x="100" y="1166" type="qcurve" smooth="yes"/>
      <point x="100" y="1312"/>
      <point x="311" y="1520"/>
      <point x="506" y="1520" type="qcurve" smooth="yes"/>
      <point x="654" y="1520"/>
      <point x="839" y="1425"/>
      <point x="890" y="1349" type="qcurve"/>
      <point x="884" y="1330" type="line"/>
      <point x="839" y="1391"/>
      <point x="653" y="1471"/>
      <point x="508" y="1471" type="qcurve" smooth="yes"/>
      <point x="328" y="1471"/>
      <point x="138" y="1304"/>
      <point x="138" y="1185" type="qcurve" smooth="yes"/>
      <point x="138" y="1072"/>
      <point x="288" y="927"/>
      <point x="561" y="827" type="qcurve" smooth="yes"/>
      <point x="854" y="719"/>
      <point x="1050" y="530"/>
      <point x="1050" y="383" type="qcurve" smooth="yes"/>
      <point x="1050" y="204"/>
      <point x="791" y="-23"/>
      <point x="589" y="-23" type="qcurve" smooth="yes"/>
      <point x="413" y="-23"/>
      <point x="194" y="69"/>
      <point x="125" y="138" type="qcurve"/>
      <point x="133" y="204" type="line"/>
      <point x="166" y="139"/>
      <point x="396" y="25"/>
      <point x="595" y="25" type="qcurve" smooth="yes"/>
      <point x="785" y="25"/>
      <point x="1007" y="223"/>
      <point x="1007" y="371" type="qcurve" smooth="yes"/>
      <point x="1007" y="494"/>
      <point x="829" y="670"/>
      <point x="531" y="779" type="qcurve" smooth="yes"/>
      <point x="253" y="882"/>
      <point x="100" y="1045"/>
    </contour>
    <contour>
      <point x="878" y="1340" type="line"/>
      <point x="899" y="1487" type="line"/>
      <point x="949" y="1487" type="line"/>
      <point x="949" y="1084" type="line"/>
      <point x="902" y="1084" type="line"/>
    </contour>
  </outline>
</glyph>
<glyph name="T" format="1">
  <advance width="1288"/>
  <unicode hex="0054"/>
  <outline>
    <contour>
      <point x="40" y="1122" type="line"/>
      <point x="40" y="1500" type="line"/>
      <point x="1248" y="1500" type="line"/>
      <point x="1248" y="1122" type="line"/>
      <point x="1205" y="1122" type="line"/>
      <point x="1155" y="1454" type="line"/>
      <point x="721" y="1454" type="line"/>
      <point x="669" y="1443" type="line"/>
      <point x="669" y="754" type="line"/>
      <point x="669" y="57" type="line"/>
      <point x="949" y="40" type="line"/>
      <point x="949" y="0" type="line"/>
      <point x="333" y="0" type="line"/>
      <point x="333" y="40" type="line"/>
      <point x="619" y="57" type="line"/>
      <point x="619" y="754" type="line"/>
      <point x="619" y="1440" type="line"/>
      <point x="557" y="1454" type="line"/>
      <point x="123" y="1454" type="line"/>
      <point x="83" y="1122" type="line"/>
    </contour>
  </outline>
</glyph>
<glyph name="U" format="1">
  <advance width="1632"/>
  <unicode hex="0055"/>
  <outline>
    <contour>
      <point x="74" y="1454" type="line"/>
      <point x="74" y="1500" type="line"/>
      <point x="670" y="1500" type="line"/>
      <point x="670" y="1454" type="line"/>
      <point x="398" y="1433" type="line"/>
      <point x="397" y="801" type="line"/>
      <point x="399" y="471" type="line" smooth="yes"/>
      <point x="399" y="254"/>
      <point x="639" y="13"/>
      <point x="851" y="13" type="qcurve" smooth="yes"/>
      <point x="1068" y="13"/>
      <point x="1318" y="249"/>
      <point x="1318" y="484" type="qcurve" smooth="yes"/>
      <point x="1319" y="794" type="line"/>
      <point x="1319" y="1444" type="line"/>
      <point x="1058" y="1454" type="line"/>
      <point x="1058" y="1500" type="line"/>
      <point x="1624" y="1500" type="line"/>
      <point x="1624" y="1454" type="line"/>
      <point x="1374" y="1444" type="line"/>
      <point x="1373" y="794" type="line"/>
      <point x="1375" y="494" type="line" smooth="yes"/>
      <point x="1376" y="228"/>
      <point x="1084" y="-31"/>
      <point x="853" y="-31" type="qcurve" smooth="yes"/>
      <point x="611" y="-31"/>
      <point x="347" y="248"/>
      <point x="347" y="477" type="qcurve" smooth="yes"/>
      <point x="348" y="801" type="line"/>
      <point x="347" y="1433" type="line"/>
    </contour>
  </outline>
</glyph>
<glyph name="V" format="1">
  <advance width="1426"/>
  <unicode hex="0056"/>
  <outline>
    <contour>
      <point x="-55" y="1454" type="line"/>
      <point x="-55" y="1500" type="line"/>
      <point x="479" y="1500" type="line"/>
      <point x="479" y="1454" type="line"/>
      <point x="229" y="1442" type="line"/>
      <point x="469" y="768" type="line"/>
      <point x="722" y="51" type="line"/>
      <point x="997" y="789" type="line"/>
      <point x="1236" y="1444" type="line"/>
      <point x="996" y="1454" type="line"/>
      <point x="996" y="1500" type="line"/>
      <point x="1502" y="1500" type="line"/>
      <point x="1502" y="1454" type="line"/>
      <point x="1292" y="1443" type="line"/>
      <point x="1044" y="769" type="line"/>
      <point x="752" y="-8" type="line"/>
      <point x="689" y="-8" type="line"/>
      <point x="421" y="750" type="line"/>
      <point x="172" y="1443" type="line"/>
    </contour>
  </outline>
</glyph>
<glyph name="W" format="1">
  <advance width="2102"/>
  <unicode hex="0057"/>
  <outline>
    <contour>
      <point x="-52" y="1454" type="line"/>
      <point x="-52" y="1500" type="line"/>
      <point x="502" y="1500" type="line"/>
      <point x="502" y="1454" type="line"/>
      <point x="233" y="1444" type="line"/>
      <point x="442" y="771" type="line"/>
      <point x="681" y="53" type="line"/>
      <point x="913" y="716" type="line"/>
      <point x="1051" y="1126" type="line"/>
      <point x="1075" y="1046" type="line"/>
      <point x="959" y="696" type="line"/>
      <point x="713" y="-4" type="line"/>
      <point x="652" y="-4" type="line"/>
      <point x="397" y="751" type="line"/>
      <point x="177" y="1443" type="line"/>
    </contour>
    <contour>
      <point x="696" y="1458" type="line"/>
      <point x="696" y="1500" type="line"/>
      <point x="1230" y="1500" type="line"/>
      <point x="1230" y="1458" type="line"/>
      <point x="982" y="1448" type="line"/>
      <point x="1180" y="787" type="line"/>
      <point x="1397" y="57" type="line"/>
      <point x="1671" y="815" type="line"/>
      <point x="1891" y="1443" type="line"/>
      <point x="1638" y="1454" type="line"/>
      <point x="1638" y="1500" type="line"/>
      <point x="2174" y="1500" type="line"/>
      <point x="2174" y="1454" type="line"/>
      <point x="1947" y="1442" type="line"/>
      <point x="1718" y="798" type="line"/>
      <point x="1432" y="-4" type="line"/>
      <point x="1365" y="-4" type="line"/>
      <point x="1134" y="770" type="line"/>
      <point x="927" y="1447" type="line"/>
    </contour>
  </outline>
</glyph>
<glyph name="X" format="1">
  <advance width="1346"/>
  <unicode hex="0058"/>
  <outline>
    <contour>
      <point x="-59" y="0" type="line"/>
      <point x="-59" y="40" type="line"/>
      <point x="136" y="49" type="line"/>
      <point x="649" y="822" type="line"/>
      <point x="648" y="822" type="line"/>
      <point x="1063" y="1447" type="line"/>
      <point x="826" y="1454" type="line"/>
      <point x="826" y="1500" type="line"/>
      <point x="1332" y="1500" type="line"/>
      <point x="1332" y="1454" type="line"/>
      <point x="1122" y="1445" type="line"/>
      <point x="674" y="784" type="line"/>
      <point x="675" y="784" type="line"/>
      <point x="193" y="49" type="line"/>
      <point x="437" y="40" type="line"/>
      <point x="437" y="0" type="line"/>
    </contour>
    <contour>
      <point x="-16" y="1454" type="line"/>
      <point x="-16" y="1500" type="line"/>
      <point x="518" y="1500" type="line"/>
      <point x="518" y="1454" type="line"/>
      <point x="259" y="1444" type="line"/>
      <point x="676" y="822" type="line"/>
      <point x="1199" y="50" type="line"/>
      <point x="1425" y="40" type="line"/>
      <point x="1425" y="0" type="line"/>
      <point x="881" y="0" type="line"/>
      <point x="881" y="40" type="line"/>
      <point x="1141" y="50" type="line"/>
      <point x="644" y="786" type="line"/>
      <point x="201" y="1444" type="line"/>
    </contour>
  </outline>
</glyph>
<glyph name="Y" format="1">
  <advance width="1266"/>
  <unicode hex="0059"/>
  <outline>
    <contour>
      <point x="-83" y="1454" type="line"/>
      <point x="-83" y="1500" type="line"/>
      <point x="444" y="1500" type="line"/>
      <point x="444" y="1454" type="line"/>
      <point x="213" y="1448" type="line"/>
      <point x="435" y="1038" type="line"/>
      <point x="635" y="672" type="line"/>
      <point x="861" y="1072" type="line"/>
      <point x="1075" y="1446" type="line"/>
      <point x="840" y="1454" type="line"/>
      <point x="840" y="1500" type="line"/>
      <point x="1349" y="1500" type="line"/>
      <point x="1349" y="1454" type="line"/>
      <point x="1133" y="1446" type="line"/>
      <point x="900" y="1046" type="line"/>
      <point x="660" y="621" type="line"/>
      <point x="660" y="60" type="line"/>
      <point x="943" y="40" type="line"/>
      <point x="943" y="0" type="line"/>
      <point x="324" y="0" type="line"/>
      <point x="324" y="40" type="line"/>
      <point x="610" y="60" type="line"/>
      <point x="610" y="612" type="line"/>
      <point x="391" y="1016" type="line"/>
      <point x="154" y="1443" type="line"/>
    </contour>
  </outline>
</glyph>
<glyph name="Z" format="1">
  <advance width="1166"/>
  <unicode hex="005A"/>
  <outline>
    <contour>
      <point x="59" y="0" type="line"/>
      <point x="44" y="44" type="line"/>
      <point x="539" y="757" type="line"/>
      <point x="1007" y="1439" type="line"/>
      <point x="1000" y="1452" type="line"/>
      <point x="173" y="1452" type="line"/>
      <point x="128" y="1088" type="line"/>
      <point x="80" y="1088" type="line"/>
      <point x="80" y="1500" type="line"/>
      <point x="1071" y="1500" type="line"/>
      <point x="1071" y="1450" type="line"/>
      <point x="578" y="734" type="line"/>
      <point x="107" y="53" type="line"/>
      <point x="113" y="44" type="line"/>
      <point x="1017" y="44" type="line"/>
      <point x="1103" y="378" type="line"/>
      <point x="1146" y="378" type="line"/>
      <point x="1106" y="0" type="line"/>
    </contour>
  </outline>
</glyph>
<glyph name="backslash" format="1">
  <advance width="656"/>
  <unicode hex="005C"/>
  <outline>
    <contour>
      <point x="-30" y="1536" type="line"/>
      <point x="22" y="1548" type="line"/>
      <point x="696" y="-143" type="line"/>
      <point x="644" y="-155" type="line"/>
    </contour>
  </outline>
</glyph>
<glyph name="a" format="1">
  <advance width="1032"/>
  <unicode hex="0061"/>
  <outline>
    <contour>
      <point x="94" y="246" type="qcurve" smooth="yes"/>
      <point x="94" y="378"/>
      <point x="377" y="573"/>
      <point x="734" y="630" type="qcurve"/>
      <point x="735" y="596" type="line"/>
      <point x="419" y="544"/>
      <point x="145" y="370"/>
      <point x="145" y="250" type="qcurve" smooth="yes"/>
      <point x="145" y="149"/>
      <point x="273" y="32"/>
      <point x="396" y="32" type="qcurve" smooth="yes"/>
      <point x="519" y="32"/>
      <point x="724" y="175"/>
      <point x="734" y="240" type="qcurve"/>
      <point x="741" y="236" type="line"/>
      <point x="737" y="160"/>
      <point x="530" y="-15"/>
      <point x="369" y="-15" type="qcurve" smooth="yes"/>
      <point x="233" y="-15"/>
      <point x="94" y="129"/>
    </contour>
    <contour>
      <point x="150" y="906" type="line"/>
      <point x="186" y="946"/>
      <point x="345" y="1021"/>
      <point x="463" y="1021" type="qcurve" smooth="yes"/>
      <point x="611" y="1021"/>
      <point x="776" y="837"/>
      <point x="776" y="618" type="qcurve" smooth="yes"/>
      <point x="777" y="55" type="line"/>
      <point x="986" y="36" type="line"/>
      <point x="986" y="0" type="line"/>
      <point x="729" y="0" type="line"/>
      <point x="730" y="14" type="line"/>
      <point x="729" y="180" type="line"/>
      <point x="730" y="618" type="line" smooth="yes"/>
      <point x="730" y="808"/>
      <point x="580" y="970"/>
      <point x="443" y="970" type="qcurve" smooth="yes"/>
      <point x="344" y="970"/>
      <point x="205" y="916"/>
      <point x="172" y="884" type="qcurve"/>
    </contour>
  </outline>
</glyph>
<glyph name="j" format="1">
  <advance width="556"/>
  <unicode hex="006A"/>
  <outline>
    <contour>
      <point x="40" y="-488" type="line"/>
      <point x="40" y="-444" type="line"/>
      <point x="279" y="-421" type="line"/>
      <point x="278" y="527" type="line"/>
      <point x="277" y="927" type="line"/>
      <point x="45" y="953" type="line"/>
      <point x="45" y="990" type="line"/>
      <point x="316" y="1003" type="line"/>
      <point x="330" y="998" type="line"/>
      <point x="328" y="974" type="line"/>
      <point x="326" y="527" type="line"/>
      <point x="327" y="-331" type="line" smooth="yes"/>
      <point x="327" y="-422"/>
      <point x="218" y="-497"/>
      <point x="133" y="-497" type="qcurve"/>
    </contour>
    <contour>
      <point x="242" y="1311" type="qcurve" smooth="yes"/>
      <point x="242" y="1336"/>
      <point x="271" y="1366"/>
      <point x="297" y="1366" type="qcurve" smooth="yes"/>
      <point x="321" y="1366"/>
      <point x="352" y="1335"/>
      <point x="352" y="1311" type="qcurve" smooth="yes"/>
      <point x="352" y="1286"/>
      <point x="322" y="1257"/>
      <point x="297" y="1257" type="qcurve" smooth="yes"/>
      <point x="272" y="1257"/>
      <point x="242" y="1289"/>
    </contour>
  </outline>
</glyph>
<glyph name="k" format="1">
  <advance width="1072"/>
  <unicode hex="006B"/>
  <outline>
    <contour>
      <point x="76" y="0" type="line"/>
      <point x="76" y="36" type="line"/>
      <point x="279" y="61" type="line"/>
      <point x="279" y="492" type="line"/>
      <point x="279" y="1443" type="line"/>
      <point x="52" y="1462" type="line"/>
      <point x="52" y="1500" type="line"/>
      <point x="318" y="1510" type="line"/>
      <point x="321" y="1504" type="line"/>
      <point x="327" y="1479" type="line"/>
      <point x="327" y="488" type="line"/>
      <point x="327" y="61" type="line"/>
      <point x="526" y="36" type="line"/>
      <point x="526" y="0" type="line"/>
    </contour>
    <contour>
      <point x="315" y="433" type="line"/>
      <point x="314" y="480" type="line"/>
      <point x="840" y="955" type="line"/>
      <point x="651" y="963" type="line"/>
      <point x="651" y="1000" type="line"/>
      <point x="1077" y="1000" type="line"/>
      <point x="1077" y="963" type="line"/>
      <point x="900" y="955" type="line"/>
    </contour>
    <contour>
      <point x="504" y="622" type="line"/>
      <point x="540" y="651" type="line"/>
      <point x="958" y="47" type="line"/>
      <point x="1125" y="36" type="line"/>
      <point x="1125" y="0" type="line"/>
      <point x="948" y="0" type="line"/>
      <point x="927" y="14" type="line"/>
      <point x="890" y="64" type="line"/>
    </contour>
  </outline>
</glyph>
<glyph name="o" format="1">
  <advance width="1168"/>
  <unicode hex="006F"/>
  <outline>
    <contour>
      <point x="105" y="501" type="qcurve" smooth="yes"/>
      <point x="105" y="723"/>
      <point x="372" y="1022"/>
      <point x="582" y="1022" type="qcurve" smooth="yes"/>
      <point x="793" y="1022"/>
      <point x="1063" y="733"/>
      <point x="1063" y="504" type="qcurve" smooth="yes"/>
      <point x="1063" y="281"/>
      <point x="795" y="-23"/>
      <point x="584" y="-23" type="qcurve" smooth="yes"/>
      <point x="374" y="-23"/>
      <point x="105" y="269"/>
    </contour>
    <contour>
      <point x="156" y="505" type="qcurve" smooth="yes"/>
      <point x="156" y="297"/>
      <point x="396" y="22"/>
      <point x="580" y="22" type="qcurve" smooth="yes"/>
      <point x="777" y="22"/>
      <point x="1011" y="285"/>
      <point x="1011" y="505" type="qcurve" smooth="yes"/>
      <point x="1011" y="714"/>
      <point x="771" y="975"/>
      <point x="582" y="975" type="qcurve" smooth="yes"/>
      <point x="388" y="975"/>
      <point x="155" y="723"/>
    </contour>
  </outline>
</glyph>
<glyph name="q" format="1">
  <advance width="1188"/>
  <unicode hex="0071"/>
  <outline>
    <contour>
      <point x="106" y="490" type="qcurve" smooth="yes"/>
      <point x="106" y="725"/>
      <point x="362" y="1020"/>
      <point x="570" y="1020" type="qcurve" smooth="yes"/>
      <point x="699" y="1020"/>
      <point x="875" y="926"/>
      <point x="904" y="872" type="qcurve"/>
      <point x="897" y="822" type="line"/>
      <point x="855" y="890"/>
      <point x="684" y="979"/>
      <point x="567" y="979" type="qcurve" smooth="yes"/>
      <point x="383" y="979"/>
      <point x="158" y="713"/>
      <point x="158" y="500" type="qcurve" smooth="yes"/>
      <point x="158" y="284"/>
      <point x="374" y="39"/>
      <point x="550" y="39" type="qcurve" smooth="yes"/>
      <point x="675" y="39"/>
      <point x="851" y="151"/>
      <point x="896" y="227" type="qcurve"/>
      <point x="904" y="205" type="line"/>
      <point x="866" y="124"/>
      <point x="684" y="-11"/>
      <point x="545" y="-11" type="qcurve" smooth="yes"/>
      <point x="357" y="-11"/>
      <point x="106" y="259"/>
    </contour>
    <contour>
      <point x="658" y="-480" type="line"/>
      <point x="658" y="-444" type="line"/>
      <point x="886" y="-422" type="line"/>
      <point x="888" y="220" type="line"/>
      <point x="888" y="923" type="line"/>
      <point x="900" y="1003" type="line"/>
      <point x="1148" y="993" type="line"/>
      <point x="1148" y="956" type="line"/>
      <point x="936" y="940" type="line"/>
      <point x="935" y="428" type="line"/>
      <point x="935" y="-422" type="line"/>
      <point x="1146" y="-444" type="line"/>
      <point x="1146" y="-480" type="line"/>
    </contour>
  </outline>
</glyph>
<glyph name="r" format="1">
  <advance width="864"/>
  <unicode hex="0072"/>
  <outline>
    <contour>
      <point x="76" y="0" type="line"/>
      <point x="76" y="36" type="line"/>
      <point x="285" y="60" type="line"/>
      <point x="285" y="527" type="line"/>
      <point x="285" y="940" type="line"/>
      <point x="76" y="953" type="line"/>
      <point x="76" y="990" type="line"/>
      <point x="318" y="1000" type="line"/>
      <point x="331" y="988" type="line"/>
      <point x="333" y="843" type="line"/>
      <point x="333" y="527" type="line"/>
      <point x="333" y="60" type="line"/>
      <point x="552" y="36" type="line"/>
      <point x="552" y="0" type="line"/>
    </contour>
    <contour>
      <point x="326" y="689" type="qcurve"/>
      <point x="320" y="720" type="line"/>
      <point x="355" y="840"/>
      <point x="562" y="1013"/>
      <point x="726" y="1013" type="qcurve" smooth="yes"/>
      <point x="828" y="1012" type="line"/>
      <point x="828" y="766" type="line"/>
      <point x="784" y="766" type="line"/>
      <point x="737" y="954" type="line"/>
      <point x="575" y="954"/>
      <point x="386" y="826"/>
    </contour>
  </outline>
</glyph>
<glyph name="s" format="1">
  <advance width="872"/>
  <unicode hex="0073"/>
  <outline>
    <contour>
      <point x="67" y="0" type="line"/>
      <point x="67" y="319" type="line"/>
      <point x="108" y="319" type="line"/>
      <point x="151" y="118" type="line"/>
      <point x="105" y="0" type="line"/>
    </contour>
    <contour>
      <point x="110" y="784" type="qcurve" smooth="yes"/>
      <point x="110" y="889"/>
      <point x="275" y="1022"/>
      <point x="415" y="1022" type="qcurve" smooth="yes"/>
      <point x="521" y="1022"/>
      <point x="663" y="957"/>
      <point x="700" y="913" type="qcurve"/>
      <point x="679" y="879" type="line"/>
      <point x="638" y="924"/>
      <point x="509" y="982"/>
      <point x="409" y="982" type="qcurve" smooth="yes"/>
      <point x="283" y="982"/>
      <point x="145" y="879"/>
      <point x="145" y="800" type="qcurve" smooth="yes"/>
      <point x="145" y="716"/>
      <point x="293" y="612"/>
      <point x="462" y="560" type="qcurve" smooth="yes"/>
      <point x="629" y="510"/>
      <point x="811" y="378"/>
      <point x="811" y="265" type="qcurve" smooth="yes"/>
      <point x="811" y="141"/>
      <point x="617" y="-20"/>
      <point x="468" y="-20" type="qcurve" smooth="yes"/>
      <point x="354" y="-20"/>
      <point x="166" y="60"/>
      <point x="116" y="132" type="qcurve"/>
      <point x="144" y="166" type="line"/>
      <point x="182" y="102"/>
      <point x="351" y="23"/>
      <point x="479" y="23" type="qcurve" smooth="yes"/>
      <point x="606" y="23"/>
      <point x="774" y="154"/>
      <point x="774" y="252" type="qcurve" smooth="yes"/>
      <point x="774" y="350"/>
      <point x="594" y="470"/>
      <point x="432" y="520" type="qcurve" smooth="yes"/>
      <point x="259" y="573"/>
      <point x="110" y="689"/>
    </contour>
    <contour>
      <point x="670" y="895" type="line"/>
      <point x="699" y="1000" type="line"/>
      <point x="739" y="1000" type="line"/>
      <point x="739" y="711" type="line"/>
      <point x="698" y="711" type="line"/>
    </contour>
  </outline>
</glyph>
<glyph name="t" format="1">
  <advance width="612"/>
  <unicode hex="0074"/>
  <outline>
    <contour>
      <point x="31" y="937" type="line"/>
      <point x="31" y="974" type="line"/>
      <point x="159" y="968"/>
      <point x="218" y="1036"/>
      <point x="221" y="1206" type="qcurve"/>
      <point x="280" y="1206" type="line"/>
      <point x="281" y="1031" type="line"/>
      <point x="287" y="527" type="line"/>
      <point x="285" y="72" type="line"/>
      <point x="273" y="76" type="line"/>
      <point x="556" y="62" type="line"/>
      <point x="556" y="22" type="line"/>
      <point x="314" y="-8" type="line"/>
      <point x="271" y="-5"/>
      <point x="237" y="43"/>
      <point x="237" y="95" type="qcurve" smooth="yes"/>
      <point x="239" y="527" type="line"/>
      <point x="239" y="925" type="line"/>
    </contour>
    <contour>
      <point x="261" y="936" type="line"/>
      <point x="263" y="977" type="line"/>
      <point x="570" y="977" type="line"/>
      <point x="570" y="936" type="line"/>
    </contour>
  </outline>
</glyph>
<glyph name="u" format="1">
  <advance width="1244"/>
  <unicode hex="0075"/>
  <outline>
    <contour>
      <point x="56" y="953" type="line"/>
      <point x="56" y="990" type="line"/>
      <point x="303" y="1000" type="line"/>
      <point x="312" y="992" type="line"/>
      <point x="313" y="969" type="line"/>
      <point x="313" y="473" type="line"/>
      <point x="313" y="266" type="line" smooth="yes"/>
      <point x="313" y="146"/>
      <point x="436" y="39"/>
      <point x="556" y="39" type="qcurve" smooth="yes"/>
      <point x="672" y="39"/>
      <point x="868" y="174"/>
      <point x="926" y="323" type="qcurve"/>
      <point x="931" y="292" type="line"/>
      <point x="890" y="150"/>
      <point x="682" y="-18"/>
      <point x="547" y="-18" type="qcurve" smooth="yes"/>
      <point x="406" y="-18"/>
      <point x="265" y="116"/>
      <point x="265" y="246" type="qcurve" smooth="yes"/>
      <point x="265" y="320"/>
      <point x="266" y="473"/>
      <point x="266" y="473" type="qcurve"/>
      <point x="265" y="938" type="line"/>
    </contour>
    <contour>
      <point x="722" y="953" type="line"/>
      <point x="722" y="990" type="line"/>
      <point x="964" y="1000" type="line"/>
      <point x="968" y="992" type="line"/>
      <point x="969" y="969" type="line"/>
      <point x="969" y="473" type="line"/>
      <point x="969" y="57" type="line"/>
      <point x="1178" y="47" type="line"/>
      <point x="1178" y="10" type="line"/>
      <point x="915" y="0" type="line"/>
      <point x="925" y="20" type="line"/>
      <point x="921" y="137" type="line"/>
      <point x="921" y="473" type="line"/>
      <point x="921" y="938" type="line"/>
    </contour>
  </outline>
</glyph>
<glyph name="w" format="1">
  <advance width="1593"/>
  <unicode hex="0077"/>
  <outline>
    <contour>
      <point x="-44" y="963" type="line"/>
      <point x="-44" y="1000" type="line"/>
      <point x="377" y="1000" type="line"/>
      <point x="377" y="963" type="line"/>
      <point x="194" y="942" type="line"/>
      <point x="342" y="512" type="line"/>
      <point x="505" y="45" type="line"/>
      <point x="676" y="486" type="line"/>
      <point x="788" y="791" type="line"/>
      <point x="809" y="729" type="line"/>
      <point x="711" y="464" type="line"/>
      <point x="533" y="-7" type="line"/>
      <point x="472" y="-7" type="line"/>
      <point x="301" y="498" type="line"/>
      <point x="145" y="941" type="line"/>
    </contour>
    <contour>
      <point x="523" y="963" type="line"/>
      <point x="523" y="1000" type="line"/>
      <point x="940" y="1000" type="line"/>
      <point x="940" y="963" type="line"/>
      <point x="762" y="942" type="line"/>
      <point x="911" y="504" type="line"/>
      <point x="1069" y="45" type="line"/>
      <point x="1245" y="515" type="line"/>
      <point x="1400" y="949" type="line"/>
      <point x="1219" y="963" type="line"/>
      <point x="1219" y="1000" type="line"/>
      <point x="1624" y="1000" type="line"/>
      <point x="1624" y="963" type="line"/>
      <point x="1451" y="949" type="line"/>
      <point x="1282" y="499" type="line"/>
      <point x="1099" y="-7" type="line"/>
      <point x="1038" y="-7" type="line"/>
      <point x="869" y="492" type="line"/>
      <point x="712" y="941" type="line"/>
    </contour>
  </outline>
</glyph>
<glyph name="x" format="1">
  <advance width="1043"/>
  <unicode hex="0078"/>
  <outline>
    <contour>
      <point x="3" y="0" type="line"/>
      <point x="3" y="36" type="line"/>
      <point x="187" y="53" type="line"/>
      <point x="506" y="517" type="line"/>
      <point x="517" y="523" type="line"/>
      <point x="803" y="947" type="line"/>
      <point x="603" y="963" type="line"/>
      <point x="603" y="1000" type="line"/>
      <point x="1019" y="1000" type="line"/>
      <point x="1019" y="963" type="line"/>
      <point x="857" y="947" type="line"/>
      <point x="540" y="492" type="line"/>
      <point x="531" y="489" type="line"/>
      <point x="240" y="53" type="line"/>
      <point x="419" y="36" type="line"/>
      <point x="419" y="0" type="line"/>
    </contour>
    <contour>
      <point x="6" y="963" type="line"/>
      <point x="6" y="1000" type="line"/>
      <point x="428" y="1000" type="line"/>
      <point x="428" y="963" type="line"/>
      <point x="238" y="946" type="line"/>
      <point x="537" y="517" type="line"/>
      <point x="862" y="54" type="line"/>
      <point x="1057" y="36" type="line"/>
      <point x="1057" y="0" type="line"/>
      <point x="625" y="0" type="line"/>
      <point x="625" y="36" type="line"/>
      <point x="809" y="53" type="line"/>
      <point x="504" y="492" type="line"/>
      <point x="185" y="945" type="line"/>
    </contour>
  </outline>
</glyph>
<glyph name="y" format="1">
  <advance width="1046"/>
  <unicode hex="0079"/>
  <outline>
    <contour>
      <point x="-44" y="963" type="line"/>
      <point x="-44" y="1000" type="line"/>
      <point x="380" y="1000" type="line"/>
      <point x="380" y="963" type="line"/>
      <point x="198" y="941" type="line"/>
      <point x="346" y="516" type="line"/>
      <point x="513" y="39" type="line"/>
      <point x="699" y="525" type="line"/>
      <point x="852" y="946" type="line"/>
      <point x="660" y="963" type="line"/>
      <point x="660" y="1000" type="line"/>
      <point x="1076" y="1000" type="line"/>
      <point x="1076" y="963" type="line"/>
      <point x="905" y="945" type="line"/>
      <point x="740" y="508" type="line"/>
      <point x="464" y="-228" type="line" smooth="yes"/>
      <point x="415" y="-359"/>
      <point x="245" y="-491"/>
      <point x="151" y="-491" type="qcurve"/>
      <point x="-7" y="-475" type="line"/>
      <point x="-7" y="-431" type="line"/>
      <point x="94" y="-431" type="line" smooth="yes"/>
      <point x="227" y="-431"/>
      <point x="380" y="-315"/>
      <point x="427" y="-190" type="qcurve" smooth="yes"/>
      <point x="490" y="-24" type="line"/>
      <point x="305" y="500" type="line"/>
      <point x="147" y="940" type="line"/>
    </contour>
  </outline>
</glyph>
<glyph name="z" format="1">
  <advance width="885"/>
  <unicode hex="007A"/>
  <outline>
    <contour>
      <point x="37" y="0" type="line"/>
      <point x="37" y="46" type="line"/>
      <point x="759" y="953" type="line"/>
      <point x="167" y="953" type="line"/>
      <point x="123" y="740" type="line"/>
      <point x="78" y="740" type="line"/>
      <point x="78" y="1000" type="line"/>
      <point x="820" y="1000" type="line"/>
      <point x="820" y="956" type="line"/>
      <point x="95" y="47" type="line"/>
      <point x="759" y="47" type="line"/>
      <point x="802" y="260" type="line"/>
      <point x="846" y="260" type="line"/>
      <point x="846" y="0" type="line"/>
    </contour>
  </outline>
</glyph>
<glyph name="braceleft" format="1">
  <advance width="693"/>
  <unicode hex="007B"/>
  <outline>
    <contour>
      <point x="60" y="514" type="line"/>
      <point x="60" y="556" type="line"/>
      <point x="190" y="566" type="line" smooth="yes"/>
      <point x="265" y="572"/>
      <point x="374" y="644"/>
      <point x="374" y="734" type="qcurve" smooth="yes"/>
      <point x="374" y="826"/>
      <point x="245" y="1074"/>
      <point x="245" y="1201" type="qcurve" smooth="yes"/>
      <point x="245" y="1335"/>
      <point x="382" y="1510"/>
      <point x="526" y="1510" type="qcurve" smooth="yes"/>
      <point x="578" y="1510"/>
      <point x="648" y="1503"/>
      <point x="683" y="1500" type="qcurve"/>
      <point x="683" y="1454" type="line"/>
      <point x="643" y="1457"/>
      <point x="579" y="1460"/>
      <point x="537" y="1460" type="qcurve" smooth="yes"/>
      <point x="417" y="1460"/>
      <point x="292" y="1321"/>
      <point x="292" y="1204" type="qcurve" smooth="yes"/>
      <point x="292" y="1076"/>
      <point x="411" y="837"/>
      <point x="411" y="751" type="qcurve" smooth="yes"/>
      <point x="411" y="655"/>
      <point x="318" y="561"/>
      <point x="252" y="547" type="qcurve"/>
      <point x="373" y="529"/>
      <point x="408" y="462"/>
      <point x="408" y="348" type="qcurve" smooth="yes"/>
      <point x="408" y="221"/>
      <point x="276" y="-57"/>
      <point x="276" y="-172" type="qcurve" smooth="yes"/>
      <point x="276" y="-314"/>
      <point x="414" y="-445"/>
      <point x="522" y="-445" type="qcurve" smooth="yes"/>
      <point x="569" y="-445"/>
      <point x="629" y="-443"/>
      <point x="678" y="-439" type="qcurve"/>
      <point x="678" y="-484" type="line"/>
      <point x="640" y="-488"/>
      <point x="565" y="-495"/>
      <point x="514" y="-495" type="qcurve" smooth="yes"/>
      <point x="376" y="-495"/>
      <point x="229" y="-329"/>
      <point x="229" y="-170" type="qcurve" smooth="yes"/>
      <point x="229" y="-50"/>
      <point x="369" y="246"/>
      <point x="369" y="382" type="qcurve"/>
      <point x="349" y="514" type="line"/>
    </contour>
  </outline>
</glyph>
<glyph name="braceright" format="1">
  <advance width="693"/>
  <unicode hex="007D"/>
  <outline>
    <contour>
      <point x="633" y="514" type="line"/>
      <point x="344" y="514" type="line"/>
      <point x="324" y="382" type="line"/>
      <point x="324" y="246"/>
      <point x="464" y="-50"/>
      <point x="464" y="-170" type="qcurve" smooth="yes"/>
      <point x="464" y="-329"/>
      <point x="317" y="-495"/>
      <point x="179" y="-495" type="qcurve" smooth="yes"/>
      <point x="128" y="-495"/>
      <point x="53" y="-488"/>
      <point x="15" y="-484" type="qcurve"/>
      <point x="15" y="-439" type="line"/>
      <point x="64" y="-443"/>
      <point x="124" y="-445"/>
      <point x="171" y="-445" type="qcurve" smooth="yes"/>
      <point x="279" y="-445"/>
      <point x="417" y="-314"/>
      <point x="417" y="-172" type="qcurve" smooth="yes"/>
      <point x="417" y="-57"/>
      <point x="285" y="221"/>
      <point x="285" y="348" type="qcurve" smooth="yes"/>
      <point x="285" y="462"/>
      <point x="320" y="529"/>
      <point x="441" y="547" type="qcurve"/>
      <point x="375" y="561"/>
      <point x="282" y="655"/>
      <point x="282" y="751" type="qcurve" smooth="yes"/>
      <point x="282" y="837"/>
      <point x="401" y="1076"/>
      <point x="401" y="1204" type="qcurve" smooth="yes"/>
      <point x="401" y="1321"/>
      <point x="276" y="1460"/>
      <point x="156" y="1460" type="qcurve" smooth="yes"/>
      <point x="114" y="1460"/>
      <point x="50" y="1457"/>
      <point x="10" y="1454" type="qcurve"/>
      <point x="10" y="1500" type="line"/>
      <point x="45" y="1503"/>
      <point x="115" y="1510"/>
      <point x="167" y="1510" type="qcurve" smooth="yes"/>
      <point x="311" y="1510"/>
      <point x="448" y="1335"/>
      <point x="448" y="1201" type="qcurve" smooth="yes"/>
      <point x="448" y="1074"/>
      <point x="319" y="826"/>
      <point x="319" y="734" type="qcurve" smooth="yes"/>
      <point x="319" y="644"/>
      <point x="428" y="572"/>
      <point x="503" y="566" type="qcurve" smooth="yes"/>
      <point x="633" y="556" type="line"/>
    </contour>
  </outline>
</glyph>
<glyph name="asciitilde" format="1">
  <advance width="1024"/>
  <unicode hex="007E"/>
  <outline>
    <contour>
      <point x="58" y="564" type="line"/>
      <point x="119" y="640"/>
      <point x="264" y="745"/>
      <point x="346" y="745" type="qcurve"/>
      <point x="701" y="614" type="line"/>
      <point x="764" y="614"/>
      <point x="873" y="728"/>
      <point x="916" y="813" type="qcurve"/>
      <point x="953" y="792" type="line"/>
      <point x="904" y="692"/>
      <point x="776" y="574"/>
      <point x="684" y="574" type="qcurve"/>
      <point x="336" y="702" type="line"/>
      <point x="270" y="702"/>
      <point x="147" y="605"/>
      <point x="86" y="537" type="qcurve"/>
    </contour>
  </outline>
</glyph>
